<?xml version="1.0" encoding="utf-8"?>
<!-- Generator: Adobe Illustrator 24.1.0, SVG Export Plug-In . SVG Version: 6.00 Build 0)  -->
<svg version="1.1" id="Layer_1" xmlns="http://www.w3.org/2000/svg" xmlns:xlink="http://www.w3.org/1999/xlink" x="0px" y="0px"
	 viewBox="0 0 162 32" style="enable-background:new 0 0 162 32;" xml:space="preserve">
<style type="text/css">
	.st0{fill:none;}
	.st1{fill:#455A64;}
</style>
<g>
	<rect class="st0" width="162" height="32"/>
	<path class="st1" d="M0.3,9.2h5.3c4.2,0,7.2,2.9,7.2,6.7l0,0c0,3.8-2.9,6.8-7.2,6.8H0.3V9.2z M3.2,11.9v8.2h2.3
		c2.4,0,4.1-1.6,4.1-4V16c0-2.4-1.7-4.1-4.1-4.1H3.2L3.2,11.9z M15.1,9.2h3v13.5h-3V9.2z M20.4,16L20.4,16c0-3.9,3-7,7.1-7
		c2.4,0,3.9,0.7,5.3,1.8l-1.9,2.3c-1-0.9-2-1.4-3.5-1.4c-2.1,0-3.9,1.9-3.9,4.2l0,0c0,2.5,1.7,4.3,4.1,4.3c1.1,0,2-0.3,2.8-0.8v-1.9
		h-3v-2.6h5.8v5.8C31.9,22,30,23,27.5,23C23.3,23,20.4,20,20.4,16z M36.1,9.2h3v13.5h-3V9.2z M44.9,12h-4.1V9.2H52V12h-4.1v10.7h-3
		V12L44.9,12z M56.8,9.1h2.7l5.8,13.6h-3.1l-1.2-3h-5.7l-1.2,3h-3L56.8,9.1z M59.8,17.1L58,12.7l-1.8,4.4H59.8L59.8,17.1z M66.9,9.2
		h3V20h6.7v2.7h-9.7V9.2z M86.1,12.5h-4V9.2h11.8v3.3h-4.1v10.2H86L86.1,12.5L86.1,12.5z M95,9.2h6.4c2.1,0,3.5,0.5,4.4,1.4
		c0.8,0.8,1.2,1.8,1.2,3.1l0,0c0,2.1-1.1,3.4-2.8,4.1l3.2,4.7h-4.3l-2.7-4.1h-1.7v4.1H95V9.2L95,9.2z M101.2,15.7c1.3,0,2-0.6,2-1.6
		l0,0c0-1.1-0.8-1.6-2-1.6h-2.5v3.3L101.2,15.7L101.2,15.7z M108.7,9.2h10.9v3.1h-7.2v2h6.5v2.9h-6.5v2.1h7.2v3.2h-10.9V9.2z
		 M121.6,9.2h3.5l5.5,7.1V9.2h3.7v13.5h-3.2l-5.8-7.4v7.4h-3.7L121.6,9.2L121.6,9.2z M136.7,9.2h5.2c4.8,0,7.6,2.7,7.6,6.7l0,0
		c0,3.9-2.8,6.8-7.7,6.8h-5.1V9.2z M140.4,12.5v6.9h1.5c2.3,0,3.8-1.2,3.8-3.4l0,0c0-2.2-1.5-3.4-3.8-3.4h-1.5V12.5z M150,20.7
		l2.1-2.5c1.4,1.1,2.8,1.6,4.4,1.6c1,0,1.6-0.3,1.6-0.9l0,0c0-0.6-0.4-0.8-2.3-1.3c-2.9-0.7-5.1-1.4-5.1-4.2l0,0
		c0-2.5,2-4.3,5.2-4.3c2.3,0,4.1,0.6,5.5,1.8l-1.9,2.7c-1.2-0.9-2.6-1.3-3.8-1.3c-0.9,0-1.4,0.3-1.4,0.9l0,0c0,0.6,0.4,0.9,2.4,1.3
		c3.1,0.7,5,1.7,5,4.2l0,0c0,2.7-2.2,4.4-5.5,4.4C153.9,23,151.7,22.2,150,20.7z"/>
</g>
</svg>
