<svg xmlns="http://www.w3.org/2000/svg" viewBox="0 0 112 32"><defs><style>.cls-1{fill:#455a64;}.cls-2{fill:none;}</style></defs><title>engadget-blue-grey</title><g id="Layer_2" data-name="Layer 2"><g id="Layer_1-2" data-name="Layer 1"><g id="Layer_1-2-2" data-name="Layer 1-2"><path class="cls-1" d="M.36,21.52a2.14,2.14,0,0,0,2.15,2.14H11.3V21.49H2.49V19.32h8.72a2.27,2.27,0,0,0,2.26-2.18V12.85a2.4,2.4,0,0,0-2.26-2.34H2.53A2.32,2.32,0,0,0,.36,12.84ZM11.3,17.15H2.49V12.68H11.3Z"/><path class="cls-1" d="M40.61,10.51H31.93a2.45,2.45,0,0,0-2.32,2.34v8.63a2.32,2.32,0,0,0,2.32,2.18h8.66v2.17H31.78V28h8.83a2.13,2.13,0,0,0,2.15-2.1v-13A2.3,2.3,0,0,0,40.61,10.51Zm0,11H31.78V12.68h8.81Z"/><path class="cls-1" d="M23.74,10.51H17.23A2.41,2.41,0,0,0,15,12.85V23.66h2.17v-11h6.61A2.35,2.35,0,0,1,26,15v8.64h2.17V15A4.53,4.53,0,0,0,23.74,10.51Z"/><path class="cls-1" d="M55.23,21.49H46.42V15a2.51,2.51,0,0,1,2.38-2.34h6.43v11H57.4V12.85a2.25,2.25,0,0,0-2.09-2.34H48.8A4.67,4.67,0,0,0,44.25,15v6.51a2.32,2.32,0,0,0,2.38,2.13h3.83c1.93,0,4-.8,4.77-2.13v2.13"/><polygon class="cls-1" points="105 4 102.83 4 102.83 23.66 105 23.66 105 12.68 111.64 12.68 111.64 10.51 105 10.51 105 4"/><path class="cls-1" d="M69.74,10.51h-8.4a2.56,2.56,0,0,0-2.44,2.34v8.63a2.43,2.43,0,0,0,2.44,2.18H72.05V4H69.74Zm0,11H61.07V12.68h8.67Z"/><path class="cls-1" d="M88.18,21.53a2.4,2.4,0,0,0,2.45,2.13h8.54V21.49H90.35V19.32h9a2.08,2.08,0,0,0,2-2.18V12.85a2.21,2.21,0,0,0-2-2.34H90.62a2.58,2.58,0,0,0-2.45,2.34Zm11-4.38H90.35V12.68h8.82Z"/><path class="cls-1" d="M84.6,10.51H75.92a2.51,2.51,0,0,0-2.38,2.34v8.63a2.38,2.38,0,0,0,2.38,2.18h8.6v2.17H75.84V28H84.6a2.07,2.07,0,0,0,2.09-2.13v-13A2.25,2.25,0,0,0,84.6,10.51Zm-.08,11H75.84V12.68h8.68Z"/></g><rect class="cls-2" width="112" height="32"/></g></g></svg>