<svg xmlns="http://www.w3.org/2000/svg" viewBox="0 0 78 32"><defs><style>.cls-1{fill:none;}.cls-2{fill:#455a64;}</style></defs><title>forbes-blue-grey</title><g id="Layer_2" data-name="Layer 2"><g id="Layer_1-2" data-name="Layer 1"><rect class="cls-1" width="78" height="32"/><path class="cls-2" d="M8,7.87H9.77c2,0,2.32,0,3,.39a5.33,5.33,0,0,1,2.42,3.21c.26.7.26.7.85.52l.39-.12,0-2.54c0-1.39-.05-2.63-.07-2.75l0-.22-7.58,0c-4.17,0-7.66,0-7.76,0l-.18,0v.45l0,.45.58.07a1.9,1.9,0,0,1,1.46.69c.6.87.7,2.06.7,7.71,0,6-.12,7.47-.7,8.23a1.58,1.58,0,0,1-1.22.64c-.88.17-.85.15-.85.6,0,.25,0,.39.07.41s9.8,0,9.9,0,.13-.76,0-.83a4.14,4.14,0,0,0-.73-.15,5.1,5.1,0,0,1-.85-.19c-.63-.28-1-1-1.12-2.42-.1-1-.17-2.82-.17-4.18V16.63l.59,0a8.27,8.27,0,0,1,2.17.22,2.73,2.73,0,0,1,1.27,1.94l.13.52h.45l.45,0v-6.6h-.45l-.45,0-.13.52a2.62,2.62,0,0,1-1.28,1.91,2.4,2.4,0,0,1-1,.19l-1.22,0H7.87V13.82c0-1.64.09-5.12.14-5.66Z"/><path class="cls-2" d="M76.86,19.52c-.46-.93-1.31-1.56-3.09-2.31a7.12,7.12,0,0,1-2.63-1.51,1.53,1.53,0,0,1-.44-1.31A1.8,1.8,0,0,1,73,12.67c1.19.25,2,1.07,2.61,2.81.23.62.26.64.68.49l.26-.1v-.72c0-.39,0-1.22,0-1.83l0-1.12-.19-.08a11.43,11.43,0,0,0-4.51-.63A5.28,5.28,0,0,0,68.21,13,4,4,0,0,0,67,16.2a3.47,3.47,0,0,0,1,2.41,5.85,5.85,0,0,0,2.5,1.44c2.28.89,2.89,1.42,2.88,2.52A2,2,0,0,1,72,24.5a3.62,3.62,0,0,1-1.57,0c-1.13-.3-2-1.28-2.74-3.1l-.19-.47h-.22a1.33,1.33,0,0,0-.38.09l-.15.07v.8c0,.43,0,1.36,0,2.05l0,1.25.25.11a15.06,15.06,0,0,0,3.06.67c.12,0,.79,0,1.48,0a5.63,5.63,0,0,0,1.9-.18,4.61,4.61,0,0,0,3.47-3,3.55,3.55,0,0,0,.2-1.3A3.65,3.65,0,0,0,76.86,19.52Z"/><path class="cls-2" d="M63,12a6.77,6.77,0,0,0-5.55.13,6.45,6.45,0,0,0-3.34,4,7.72,7.72,0,0,0-.4,3,8.22,8.22,0,0,0,.14,1.57,6.54,6.54,0,0,0,5.32,5.27,10,10,0,0,0,2.57,0,7,7,0,0,0,2.49-1c.77-.52,1.56-1.3,1.56-1.54s-.27-.49-.38-.49a2,2,0,0,0-.48.25,4.23,4.23,0,0,1-2.47.68,3.91,3.91,0,0,1-3.13-1.23,3.41,3.41,0,0,1-.75-1,7,7,0,0,1-.72-3V18.2h4.06l4.07,0,0-.27A6.37,6.37,0,0,0,66,17C65.71,14.55,64.71,12.85,63,12Zm-4.1,5-1,0V16.8c0-.12,0-.44.08-.71.35-2.22,1.17-3.55,2.2-3.55s1.54,1.31,1.66,3.71l0,.68-1,0Z"/><path class="cls-2" d="M37.79,11.44a3.06,3.06,0,0,0-1.5.31A4.92,4.92,0,0,0,34,14l-.2.35,0-.63c0-.35,0-1,0-1.44l0-.81h-.14c-.17,0-5.62,1.09-5.78,1.15s-.12.09-.12.36,0,.3.12.32l.56.11c.48.1.62.17.82.43.36.49.44,1.34.44,5a28.9,28.9,0,0,1-.21,4.9,1.19,1.19,0,0,1-1,.95l-.5.1-.2,0v.38c0,.27,0,.4.05.43s1.9,0,4.14,0h4.07v-.43a1.21,1.21,0,0,0,0-.42,8.46,8.46,0,0,1-1.44-.2c-.46-.19-.68-.6-.78-1.44s-.18-3.42-.15-5.42,0-2,.16-2.16A2.63,2.63,0,0,1,35.64,15a3.63,3.63,0,0,1,1.68.42,2.5,2.5,0,0,0,.58.22c.07,0,1.41-3.56,1.41-3.72S38.55,11.44,37.79,11.44Z"/><path class="cls-2" d="M27.88,17.57a6.6,6.6,0,0,0-3-5.23A7.64,7.64,0,0,0,18,12.19,6.64,6.64,0,0,0,14.8,16a9.88,9.88,0,0,0,0,5.65,6.28,6.28,0,0,0,1.58,2.66A6,6,0,0,0,19.77,26a15.79,15.79,0,0,0,2.48,0,6.62,6.62,0,0,0,5.52-5.41A12.64,12.64,0,0,0,27.88,17.57Zm-9.11-1.39c.3-2.41,1-3.64,2.21-3.64a1.51,1.51,0,0,1,1.24.55c1,1,1.45,2.88,1.44,5.85a10.92,10.92,0,0,1-.77,4.88,2.29,2.29,0,0,1-1.13,1.06c-1.5.44-2.57-1-3-4A28.6,28.6,0,0,1,18.77,16.18Z"/><path class="cls-2" d="M48.28,11.74A4.45,4.45,0,0,0,47,11.68a5.46,5.46,0,0,0-2.31.5l-.46.2s0-1.44,0-3.19a21.83,21.83,0,0,0,0-3.19c-.18,0-5.79,1.07-5.86,1.12s-.06.15-.05.33,0,.29.66.44a2.13,2.13,0,0,1,.54.2,1.8,1.8,0,0,1,.55,1,17.16,17.16,0,0,1,.17,3.38c0,2.74,0,5.57,0,10.75l0,2.15.4.09c.58.13,2.25.41,2.79.46a19.53,19.53,0,0,0,3.26,0,6.64,6.64,0,0,0,5.43-4.17,10.06,10.06,0,0,0,.55-2.24,13.58,13.58,0,0,0-.1-3.09A5.66,5.66,0,0,0,48.28,11.74Zm-3.6,13.13c-.23,0-.27-.05-.32-.16s-.15-6.63-.12-9.2l0-2,.36-.11a3.15,3.15,0,0,1,.86-.11,1.5,1.5,0,0,1,.92.21c1,.47,1.59,1.63,1.89,3.39a15.65,15.65,0,0,1,0,3.22,7.12,7.12,0,0,1-1.71,4.22,2,2,0,0,1-1,.53A2.5,2.5,0,0,1,44.68,24.87Z"/></g></g></svg>