<svg xmlns="http://www.w3.org/2000/svg" viewBox="0 0 136 32"><defs><style>.cls-1{fill:none;}.cls-2{fill:#455a64;fill-rule:evenodd;}</style></defs><title>entrepreneur-blue-grey0</title><g id="Layer_2" data-name="Layer 2"><g id="Layer_1-2" data-name="Layer 1"><rect class="cls-1" width="136" height="32"/><g id="Layer_1-2-2" data-name="Layer 1-2"><path class="cls-2" d="M13.39,5c-.09,1.55-.18,3.09-.27,4.69L10.8,9.62c-.06-1-.11-1.92-.16-2.89H7v6.91H8.59L9,12.11h1.61v4.76H9c-.13-.5-.27-1-.4-1.57H7v7.34h3.63c.12-1,.23-2.08.36-3.17l2.44.08c.07,1.63.13,3.23.19,4.87H1.77V22.71l1.67-.29V6.89l-1.86-.2V5Zm47.9,26c0-.46.06-.89.09-1.33L60,29.39v-5.2l.19,0a5.11,5.11,0,0,0,2.56.37A4.1,4.1,0,0,0,66.45,22a8.47,8.47,0,0,0,.49-1.65,16.87,16.87,0,0,0,.15-4.6,10.39,10.39,0,0,0-.42-2.21,3.65,3.65,0,0,0-3.26-2.9A4,4,0,0,0,59.79,12l-.16.14-.42-1.48-3.94.56V12.6l1.49.22V29.38l-1.26.28c0,.44,0,.86-.08,1.34ZM60,21.94V14.18a1.36,1.36,0,0,1,1.15-1.39l.18,0a1.81,1.81,0,0,1,2.28,1.37,6.76,6.76,0,0,1,.31,1.6,22.47,22.47,0,0,1-.08,4.78c-.08.52-.23,1-.36,1.55a.51.51,0,0,1-.37.39,4.11,4.11,0,0,1-3.1-.11Zm39.36.29V14.51a5.77,5.77,0,0,0-.08-1,3.08,3.08,0,0,0-2-2.57,4.42,4.42,0,0,0-4,.44c-.33.21-.63.47-.92.69-.11-.41-.23-.82-.35-1.25l-3.84.55v1.44l1.49.18v9.77l-1.3.28v1.41h5.83c0-.49,0-.95.08-1.42l-1.33-.28,0-.12V14.08a1,1,0,0,1,.68-.9,2.22,2.22,0,0,1,1.35-.12,1.26,1.26,0,0,1,1,.83,4.53,4.53,0,0,1,.22,1.21c0,3,0,6,0,9,0,.1,0,.2,0,.3h4.52c0-.48,0-.93.08-1.41l-1.39-.28Zm-80,.05V14.2a1,1,0,0,1,.25-.69A1.61,1.61,0,0,1,21.16,13a1.44,1.44,0,0,1,1.39,1.32,8.76,8.76,0,0,1,.08,1v9h4.55V23.7c0-.23,0-.46,0-.7l-1.39-.27v-8.3a4.84,4.84,0,0,0-.09-1.07,3.07,3.07,0,0,0-2.39-2.57,4.5,4.5,0,0,0-4.19,1l-.36.32c-.12-.45-.23-.86-.35-1.28l-3.86.55v1.44l1.48.16c.1.5.08,9.47,0,9.79L14.8,23c0,.49-.05.94-.07,1.41h5.89c0-.48.05-.94.08-1.42l-1.34-.27A3.54,3.54,0,0,1,19.34,22.28Zm100.88-9.55v8.62a1.43,1.43,0,0,1-.82,1.06,3.72,3.72,0,0,1-1,.14A1.63,1.63,0,0,1,116.7,21a7.69,7.69,0,0,1-.07-1.07V12.13a6.28,6.28,0,0,0-.33-1.46l-4.38.51v1.26l1.5.17v8a6.92,6.92,0,0,0,.09,1.11,3.16,3.16,0,0,0,1.78,2.46,4.5,4.5,0,0,0,4.94-.63c.08-.08.17-.14.29-.24l.36,1.09h3.78c0-.47.1-.92.15-1.4l-1.37-.28V12.3a5.15,5.15,0,0,0-.37-1.61l-4.4.5v1.27l1.5.15ZM54.78,18.4a3.62,3.62,0,0,0,.3-1,11,11,0,0,0-.39-3,5.59,5.59,0,0,0-1.42-2.57,4.5,4.5,0,0,0-4.33-1.05,4.88,4.88,0,0,0-3.5,2.93,8.6,8.6,0,0,0-.74,2.95,9.41,9.41,0,0,0,.75,4.86,5,5,0,0,0,3.17,2.89,6.58,6.58,0,0,0,5.18-.66q.38-.22.72-.48L54,22l-.37.15a6.16,6.16,0,0,1-2.54.5,2.59,2.59,0,0,1-2.21-1.19,5,5,0,0,1-.76-2.95Zm-6.7-1.48a1.28,1.28,0,0,1,0-.27,10.23,10.23,0,0,1,.71-3.41,1,1,0,0,1,.68-.62,1.51,1.51,0,0,1,2,.74A6.09,6.09,0,0,1,52,15.65c0,.33.06.67.1,1.08Zm63.56.45a9.49,9.49,0,0,0-.62-3.69,4.73,4.73,0,0,0-1.71-2.32,4.68,4.68,0,0,0-3.83-.61,4.74,4.74,0,0,0-3.51,3,9.65,9.65,0,0,0-.07,7.44,5,5,0,0,0,4.27,3.37,6.7,6.7,0,0,0,4.71-1.19l.22-.14L110.55,22l-.53.21a6,6,0,0,1-2.47.44,2.55,2.55,0,0,1-1.94-.93,4,4,0,0,1-.83-1.84,4.85,4.85,0,0,1-.11-1.37l6.68-.08A4.09,4.09,0,0,0,111.64,17.37Zm-7-.45a4.11,4.11,0,0,1,.06-1.31,16,16,0,0,1,.56-2.27c.25-.93,1.88-1.07,2.4-.39a3.52,3.52,0,0,1,.62,1.16,10.09,10.09,0,0,1,.41,2.62Zm-16.76.44a9.86,9.86,0,0,0-.71-3.91,4.47,4.47,0,0,0-1.94-2.3A5,5,0,0,0,80.87,11a4.88,4.88,0,0,0-2.62,2.64,9,9,0,0,0-.76,3.22,9.14,9.14,0,0,0,.85,4.8,4.93,4.93,0,0,0,3.56,2.83,6.75,6.75,0,0,0,5-1c.16-.1.3-.22.46-.33L86.78,22l-.52.21a6.13,6.13,0,0,1-2.51.44,2.49,2.49,0,0,1-1.89-.94,4.78,4.78,0,0,1-1-3.19l6.69-.08A4.57,4.57,0,0,0,87.88,17.36Zm-7.08-.44c0-.39.06-.73.1-1.06a9.23,9.23,0,0,1,.7-2.73.84.84,0,0,1,.49-.47,1.52,1.52,0,0,1,2.11.72,5.84,5.84,0,0,1,.62,2.11c.05.39.07.79.11,1.23ZM35.34,11.35v1.44l1.4.16v9.8l-1.22.31v1.35h5.82c0-.47,0-.91.08-1.36l-1.35-.31V13.41a2.86,2.86,0,0,1,1.39-.48c.08.65.15,1.28.24,1.94l2.17.09c.14-1.25.28-2.44.41-3.62a1.17,1.17,0,0,0-1.19-.55,7.59,7.59,0,0,0-3,.93l-.47.28-.3-1.2Zm96.14,13.07.09-1.37-1.34-.3V13.34l1.36-.48c.1.71.18,1.35.26,2L134,15c.14-1.25.28-2.45.4-3.61a1.09,1.09,0,0,0-1.24-.53,13.8,13.8,0,0,0-1.78.39,17.94,17.94,0,0,0-1.68.75c-.09-.35-.17-.73-.29-1.14l-4,.55v1.43l1.42.18v9.78l-1.21.3c0,.46,0,.9-.06,1.37Zm-57-9.55,2.18.08.4-3.62a1.19,1.19,0,0,0-1.26-.54,7.74,7.74,0,0,0-2.27.58c-.38.18-.75.39-1.14.59l-.33-1.17-3.94.56v1.44l1.43.16v9.8l-1.24.31v1.36h5.8c0-.46.08-.89.12-1.37l-1.38-.3v-9.4l1.39-.51C74.34,13.58,74.42,14.21,74.5,14.87ZM29.65,8.32l-.77,2.6L27.16,11c0,.6-.05,1.14-.08,1.69l1.53.25c0,.17,0,.32,0,.48v8a7,7,0,0,0,0,.79,2.56,2.56,0,0,0,2.23,2.35,6.84,6.84,0,0,0,2.47-.08,2.7,2.7,0,0,0,1.1-.36l-.15-1.42c-.49,0-.93,0-1.37,0a1,1,0,0,1-1-.92,4.84,4.84,0,0,1,0-.53q0-4,0-7.95A2,2,0,0,1,32,13l2.17-.25c.05-.57.1-1.12.15-1.73H31.86V8.21Z"/></g></g></g></svg>